<?xml version="1.0"?>
<svg xmlns="http://www.w3.org/2000/svg" xmlns:xlink="http://www.w3.org/1999/xlink" xmlns:svgjs="http://svgjs.com/svgjs" version="1.1" width="512" height="512" x="0" y="0" viewBox="0 0 496 496" style="enable-background:new 0 0 512 512" xml:space="preserve" class=""><g><path xmlns="http://www.w3.org/2000/svg" d="m8 488h480v-480h-480zm200-156 168-168-168 168-88-88zm0 0" fill="#ffffff" data-original="#c2fb3b" style="" class=""/><g xmlns="http://www.w3.org/2000/svg" fill="#231f20"><path d="m8 496h480c4.417969 0 8-3.582031 8-8v-480c0-4.417969-3.582031-8-8-8h-480c-4.417969 0-8 3.582031-8 8v480c0 4.417969 3.582031 8 8 8zm8-480h464v464h-464zm0 0" fill="#b5b5b5" data-original="#231f20" style="" class=""/><path d="m370.34375 158.34375-162.34375 162.34375-82.34375-82.34375c-3.140625-3.03125-8.128906-2.988281-11.214844.097656-3.085937 3.085938-3.128906 8.074219-.097656 11.214844l88 88c3.125 3.121094 8.1875 3.121094 11.3125 0l168-168c3.03125-3.140625 2.988281-8.128906-.097656-11.214844-3.085938-3.085937-8.074219-3.128906-11.214844-.097656zm0 0" fill="#b5b5b5" data-original="#231f20" style="" class=""/></g></g></svg>
